<svg viewBox="0 0 1024 1024" xmlns="http://www.w3.org/2000/svg" xml:space="preserve" fill-rule="evenodd" clip-rule="evenodd" stroke-linejoin="round" stroke-miterlimit="2"><clipPath id="a"><path d="M512 2C104 2 2 104 2 512s102 510 510 510 510-102 510-510S920 2 512 2Z"/></clipPath><g clip-path="url(#a)"><path fill="url(#b)" d="M-1 0h501v501H-1z" transform="translate(0 -1) scale(2.04969)"/><path d="m515-96 3 562 75-521-70 521L678-74 528 468 742-14 533 470 830-9 538 473 874 66 542 476 957 94 546 480l434-301-431 305 503-256-501 261 500-174-498 179 555-112-554 117 529-33-528 39 564 41-565-36 518 110-519-105 532 191-534-186 469 245-471-240 461 326-464-322 385 361-389-357 355 438-359-434 273 451-278-448 223 516-228-514 141 507-146-506 75 557-80-556-3 526-2-526-80 556 74-557-145 506 140-507-228 514 223-516-277 448 272-451-359 434 355-438-388 357 385-361L21 851l461-326L10 765l469-245-534 186 532-191-519 105 518-110-564 36 564-41-528-39 528 33-553-117 554 112-498-179 500 174-501-261 504 256L51 179l434 301L73 94l415 382L156 66l336 407L201-9l296 479L289-14l213 482L352-74l155 540-69-521 75 521 2-562Z" fill="#d7eced" fill-opacity=".6" filter="blur(6px)"/><path d="M466 887c-39 0-74-7-104-21s-54-33-70-58-24-53-24-86a156 156 0 0 1 64-129c20-13 42-20 66-20 21 0 40 6 55 16 15 11 25 26 28 46-33 0-58 9-78 26a90 90 0 0 0-29 70c0 28 9 49 25 65s37 25 65 25c32 0 61-12 82-33 22-23 32-51 32-85 0-29-8-57-24-84-16-26-41-58-74-96s-59-72-76-100a167 167 0 0 1 1-180c18-26 43-47 75-62s68-22 109-22c51 0 91 12 121 36 31 23 46 55 46 96 0 26-6 48-19 64a64 64 0 0 1-52 24c-24 0-44-9-58-29 13-9 22-21 29-35 6-14 10-29 10-45 0-20-6-36-18-48a65 65 0 0 0-49-18c-25 0-45 9-61 26-16 18-25 42-25 69 0 26 8 48 22 70s37 50 68 84c25 27 45 49 61 69 15 20 28 42 40 67 10 26 16 54 16 83 0 40-12 76-34 109s-52 59-91 77c-38 19-82 29-129 29Z" fill="#072123" fill-rule="nonzero"/></g><defs><radialGradient id="b" cx="0" cy="0" r="1" gradientUnits="userSpaceOnUse" gradientTransform="translate(250 250) scale(250.324)"><stop offset="0" stop-color="#fff"/><stop offset=".6" stop-color="#4fa9b2"/><stop offset="1" stop-color="#00838f"/></radialGradient></defs></svg>