<svg viewBox="0 0 500 500" xmlns="http://www.w3.org/2000/svg" fill-rule="evenodd" clip-rule="evenodd" stroke-linecap="round" stroke-linejoin="round" stroke-miterlimit="1.5"><circle cx="398.6" cy="323.7" r="102.4" fill="url(#_Radial1)" transform="matrix(-2.10797 0 0 2.10797 1090 -408)"/><path d="M82 409a215 215 0 00336 0c-5-12-23-41-64-58-48-20-206 0-206 0s-38 11-66 58z" fill="#282828"/><path d="M306 485c0 8 13 8 13 0v-96l-13 5v91zM182 469c0 7 13 7 13 0v-73l-13-5v78z" fill="#f4f4f4"/><path d="M150 351h-2s-7 2-18 8c37 72 210 69 240 0l-16-8-11-3c-11-1-164 2-193 3z" fill-opacity=".2"/><path d="M251 412c-35 0-104-20-102-65 2-37 58-36 97-36 34-1 105-5 107 38 0 41-67 63-102 63z" fill="#282828"/><g><path d="M295 305v42c0 25-22 43-46 43-26-1-43-21-43-44v-42l89 1z" fill="#ffdfbd"/><path d="M206 321v-17l89 1v16c-8 5-46 19-89 0z" fill-opacity=".1"/><path d="M354 160s19-4 18 16v26c0 8-7 21-17 21-1 31-22 93-105 95-74 0-103-59-104-95-4 0-18-4-17-24v-23s0-18 18-15c-1-24-8-121 95-120 125 1 112 119 112 119z" fill="#ffdfbd"/><path d="M273 250c-6 18-40 18-45 0" fill="none" stroke="#665848" stroke-width="6.153055999999999"/><circle cx="376.5" cy="276.4" r="5.1" fill="#324f3a" transform="matrix(-2.18259 0 0 2.18259 1120 -423)"/><circle cx="376.5" cy="276.4" r="5.1" fill="#324f3a" transform="matrix(-2.18259 0 0 2.18259 1024 -423)"/><path d="M273 213c0 11-16 15-23 15-6 0-22-4-22-15h45z" fill-opacity=".2"/><path d="M221 151c-14-13-34-13-49-1M327 151c-14-13-34-13-50-1" fill="none" stroke="#665848" stroke-width="6.153055999999999"/><g><path d="M354 160l1 64c-1 31-23 92-105 94a100 100 0 01-104-95v-62h6v34c0 10-3 51 32 60 10 3 10 1 13-7 4-8 8-22 34-24l12 1 6 3h2c2-2 4-3 7-3h11c14 0 27 6 32 16l5 12c2 5 6 5 15 1 4-2 28-9 27-49l1-45h5zm-59 103c0 12-12 30-23 29-5 0-8-3-10-5-2-1-4-4-11-3-8 0-11 3-13 4-1 1-4 4-8 4-9 0-25-13-24-29 0-18 12-23 20-23h16s5 0 6-2h5l6 2h18c8 1 18 8 18 23z" fill="#a97941"/></g><path d="M356 155c15-46-5-98-24-111-2-33-52-33-69-31-33 4-39 6-55 12-18 8-37 18-50 43-7 7-27 31-13 86l7 1c1-26 25-60 41-81 43 13 70 15 114 0 18 21 41 52 42 78l7 3z" fill="#a97941"/></g><g><path d="M250 157c-6 0-8-1-12-4-4-2-15-7-42-7-42 0-55 8-58 11-5 0-6 3-6 6v2c0 2-1 7 8 7 6 0 9 1 9 5v12c0 5 3 30 40 31h5s44 0 45-35v-8c0-4 3-5 11-5h1c7 0 11 1 11 5v8c1 35 44 35 44 35h6c37-1 39-26 40-31v-12c0-4 3-5 8-5 9 0 8-5 8-7v-2c0-3-1-6-6-6-2-3-16-11-58-11-27 0-37 5-41 7-4 3-7 4-12 4h-1zm-94 30c0 5 3 23 27 26h19c11-1 30-10 30-25v-14s-2-17-27-17h-26c-9 0-23 6-23 18v12zm189 0c0 5-3 23-27 26h-19c-11-1-31-10-30-25v-14s2-17 27-17h26c8 0 23 6 23 18v12z" fill-opacity=".1"/><path d="M250 154c-6 0-8-1-12-3-4-3-15-8-42-8-42 0-55 9-58 11-5 0-6 4-6 6v3c0 1-1 6 8 6 6 0 9 1 9 5v12c0 5 3 30 40 31h5s44 0 45-35v-8c0-4 3-5 11-5h1c7 0 11 1 11 5v8c1 35 44 35 44 35h6c37-1 39-26 40-31v-12c0-4 3-5 8-5 9 0 8-5 8-6v-3c0-2-1-6-6-6-2-2-16-11-58-11-27 0-37 5-41 8-4 2-7 3-12 3h-1zm-94 30c0 5 3 24 27 26h19c11-1 30-10 30-25v-14s-2-17-27-17h-26c-9 0-23 6-23 18v12zm189 0c0 5-3 24-27 26h-19c-11-1-31-10-30-25v-14s2-17 27-17h26c8 0 23 6 23 18v12z" fill="#262a2e"/></g><defs><radialGradient id="_Radial1" cx="0" cy="0" r="1" gradientUnits="userSpaceOnUse" gradientTransform="translate(399 324) scale(102.398)"><stop offset="0" stop-color="#fff"/><stop offset=".6" stop-color="#4fa9b2"/><stop offset="1" stop-color="#00838f"/></radialGradient></defs></svg>